<?xml version="1.0" encoding="UTF-8" standalone="no"?>
<!-- Created with Inkscape (http://www.inkscape.org/) -->

<svg
   xmlns:dc="http://purl.org/dc/elements/1.1/"
   xmlns:cc="http://creativecommons.org/ns#"
   xmlns:rdf="http://www.w3.org/1999/02/22-rdf-syntax-ns#"
   xmlns:svg="http://www.w3.org/2000/svg"
   xmlns="http://www.w3.org/2000/svg"
   xmlns:sodipodi="http://sodipodi.sourceforge.net/DTD/sodipodi-0.dtd"
   xmlns:inkscape="http://www.inkscape.org/namespaces/inkscape"
   width="215.27641mm"
   height="136.56479mm"
   viewBox="0 0 258.33169 163.87775"
   version="1.1"
   id="svg7234"
   inkscape:version="0.92.3 (2405546, 2018-03-11)"
   sodipodi:docname="Wohnung.svg">
  <defs
     id="defs7228" />
  <sodipodi:namedview
     id="base"
     pagecolor="#ffffff"
     bordercolor="#666666"
     borderopacity="1.0"
     inkscape:pageopacity="0.0"
     inkscape:pageshadow="2"
     inkscape:zoom="0.98994949"
     inkscape:cx="409.32433"
     inkscape:cy="358.69411"
     inkscape:document-units="mm"
     inkscape:current-layer="layer1"
     showgrid="false"
     inkscape:window-width="1920"
     inkscape:window-height="1137"
     inkscape:window-x="-8"
     inkscape:window-y="-8"
     inkscape:window-maximized="1" />
  <metadata
     id="metadata7231">
    <rdf:RDF>
      <cc:Work
         rdf:about="">
        <dc:format>image/svg+xml</dc:format>
        <dc:type
           rdf:resource="http://purl.org/dc/dcmitype/StillImage" />
        <dc:title></dc:title>
      </cc:Work>
    </rdf:RDF>
  </metadata>
  <g
     inkscape:label="Ebene 1"
     inkscape:groupmode="layer"
     id="layer1"
     transform="translate(-136.53441,-94.914033)">
    <rect
       style="display:inline;fill:#afdde9;stroke-width:0.21673982"
       id="rect3838"
       width="9.21597"
       height="38.38047"
       x="379.65558"
       y="160.21196" />
    <rect
       style="display:inline;fill:#5fbcd3;stroke-width:0.2204861"
       id="rect3840"
       width="4.75668"
       height="6.1557035"
       x="351.97314"
       y="200.93843" />
    <rect
       style="display:inline;fill:#5fbcd3;stroke-width:0.2204861"
       id="rect3842"
       width="4.9245625"
       height="8.114336"
       x="351.86121"
       y="208.66104" />
    <rect
       style="display:inline;fill:#5fbcd3;stroke-width:0.2204861"
       id="rect3844"
       width="4.8686018"
       height="18.523071"
       x="350.40622"
       y="169.82414" />
    <rect
       style="display:inline;fill:#5fbcd3;stroke-width:0.2204861"
       id="rect3846"
       width="5.7080164"
       height="3.4136171"
       x="377.83344"
       y="143.94786"
       transform="rotate(8.1887865)" />
    <rect
       style="display:inline;fill:#5fbcd3;stroke-width:0.22048609"
       id="rect3846-0"
       width="5.7080164"
       height="3.4136171"
       x="317.67441"
       y="267.51068"
       transform="rotate(-8.452146)" />
    <path
       style="display:inline;fill:#daebf2;fill-opacity:1;stroke-width:0.18221994"
       d="m 383.92923,198.50535 -4.1455,-0.0526 v -19.03854 -19.03855 h 4.46438 4.4644 v 15.00369 c 0,8.25203 0.0541,16.86192 0.12017,19.13309 l 0.12018,4.1294 -0.43906,-0.0419 c -0.24149,-0.0231 -2.30454,-0.0656 -4.58457,-0.0945 z"
       id="path3874"
       inkscape:connector-curvature="0" />
    <path
       style="display:inline;fill:#daebf2;fill-opacity:1;stroke-width:0.18221994"
       d="m 350.44632,179.0532 v -9.20211 h 2.36886 2.36886 v 9.20211 9.20211 h -2.36886 -2.36886 z"
       id="path3876"
       inkscape:connector-curvature="0" />
    <path
       style="display:inline;fill:#daebf2;fill-opacity:1;stroke-width:0.18221994"
       d="m 355.91518,200.01086 c -2.19781,-0.30743 -2.65026,-0.4229 -2.7016,-0.68948 -0.0694,-0.3604 0.26317,-2.67739 0.4046,-2.81882 0.10408,-0.10409 5.19346,0.60398 5.33118,0.74171 0.0493,0.0493 -0.0191,0.77512 -0.15226,1.6128 l -0.242,1.52306 z"
       id="path3878"
       inkscape:connector-curvature="0" />
    <path
       style="display:inline;fill:#daebf2;fill-opacity:1;stroke-width:0.18221994"
       d="m 352.0863,204.01732 v -3.00662 h 2.27775 2.27775 v 3.00662 3.00663 h -2.27775 -2.27775 z"
       id="path3880"
       inkscape:connector-curvature="0" />
    <path
       style="display:inline;fill:#daebf2;fill-opacity:1;stroke-width:0.18221994"
       d="m 351.90408,212.67277 v -4.00884 h 2.36886 2.36886 v 4.00884 4.00884 h -2.36886 -2.36886 z"
       id="path3882"
       inkscape:connector-curvature="0" />
    <path
       style="display:inline;fill:#daebf2;fill-opacity:1;stroke-width:0.18221994"
       d="m 354.08106,221.02161 c -0.005,-0.13203 -0.1138,-0.87555 -0.24109,-1.65226 -0.12728,-0.77671 -0.18444,-1.41409 -0.12701,-1.41639 0.0574,-0.002 1.17041,-0.16441 2.47329,-0.36025 1.30287,-0.19584 2.50292,-0.35795 2.66678,-0.36025 0.23422,-0.003 0.34422,0.31242 0.51445,1.47667 0.11909,0.81447 0.14902,1.54048 0.0665,1.61334 -0.0825,0.0728 -1.175,0.2745 -2.42776,0.44809 -1.25277,0.17357 -2.42125,0.35509 -2.59663,0.40335 -0.18452,0.0508 -0.32296,-0.0134 -0.32854,-0.1523 z"
       id="path3884"
       inkscape:connector-curvature="0" />
    <path
       style="display:inline;fill:#daebf2;fill-opacity:1;stroke-width:0.18625137"
       d="m 343.71144,224.99069 -3.38604,-0.0673 v -24.35151 -24.35157 h 3.64651 3.6465 v 19.1907 c 0,10.55491 0.0442,21.56752 0.0982,24.4725 l 0.0982,5.28176 -0.35862,-0.0538 c -0.19724,-0.0295 -1.88234,-0.0838 -3.74466,-0.12092 z"
       id="path3874-5"
       inkscape:connector-curvature="0" />
    <ellipse
       style="display:inline;fill:#daebf2;fill-opacity:1;stroke-width:0.27152804"
       id="path3901"
       cx="344.34158"
       cy="173.38382"
       rx="2.7009408"
       ry="2.5342696" />
    <path
       style="display:inline;fill:#daebf2;fill-opacity:1;stroke-width:0.22626279"
       d="m 249.89613,223.94551 -4.99709,-0.0673 V 199.5267 175.17512 h 5.38149 5.3815 v 19.19071 c 0,10.55491 0.0652,21.56752 0.14487,24.47249 l 0.14486,5.28177 -0.52926,-0.0538 c -0.29109,-0.0295 -2.77795,-0.0839 -5.52637,-0.12092 z"
       id="path3874-5-2"
       inkscape:connector-curvature="0" />
    <path
       style="display:inline;fill:#daebf2;fill-opacity:1;stroke-width:0.50197119"
       d="m 254.97575,216.32525 v -7.50333 h 6.92625 6.92627 v 7.50333 7.5033 h -6.92627 -6.92625 z"
       id="path3880-9"
       inkscape:connector-curvature="0" />
    <path
       style="display:inline;fill:#daebf2;fill-opacity:1;stroke-width:0.40003505"
       d="m 253.96518,182.67845 1.69685,-7.50333 h 4.39884 4.39883 v 7.50333 7.5033 h -4.39883 -4.39884 z"
       id="path3880-9-0"
       inkscape:connector-curvature="0"
       sodipodi:nodetypes="ccccccccc" />
    <path
       style="display:inline;fill:#daebf2;fill-opacity:1;stroke-width:0.43721732"
       d="m 261.61438,199.2754 v -6.12349 h 6.4386 6.43861 v 6.12349 6.12346 h -6.43861 -6.4386 z"
       id="path3880-9-6"
       inkscape:connector-curvature="0" />
    <path
       style="display:inline;fill:#daebf2;fill-opacity:1;stroke-width:0.68278331"
       d="m 378.54276,119.5609 v -18.79096 h 5.11696 5.11697 v 18.79096 18.79091 h -5.11697 -5.11696 z"
       id="path3880-9-6-6"
       inkscape:connector-curvature="0" />
    <path
       style="display:inline;fill:#daebf2;fill-opacity:1;stroke-width:0.05619207"
       d="m 262.73966,133.61012 -2.6658,0.008 v 2.81541 2.81542 h 2.87086 2.87086 v -2.21879 c 0,-1.2203 0.0348,-2.49353 0.0772,-2.82939 l 0.0772,-0.61065 -0.28234,0.006 c -0.15528,0.003 -1.48195,0.01 -2.94814,0.014 z"
       id="path3874-0"
       inkscape:connector-curvature="0" />
    <path
       style="display:inline;fill:#daebf2;fill-opacity:1;stroke-width:0.080477"
       d="m 252.30651,131.64814 -3.83399,0.0111 v 4.01524 4.01523 h 4.12891 4.12893 v -3.16428 c 0,-1.74036 0.05,-3.55618 0.1111,-4.03517 l 0.1111,-0.87089 -0.40607,0.009 c -0.22333,0.005 -2.13136,0.0139 -4.24006,0.0199 z"
       id="path3874-0-7"
       inkscape:connector-curvature="0" />
    <path
       style="display:inline;fill:#daebf2;fill-opacity:1;stroke-width:0.51619083"
       d="m 259.80553,120.30215 v -12.73333 h 13.73767 13.73767 v 12.73333 12.73333 H 273.5432 259.80553 Z"
       id="path3876-3"
       inkscape:connector-curvature="0" />
    <path
       style="display:inline;fill:#daebf2;fill-opacity:1;stroke-width:0.39027137"
       d="m 185.87994,104.67014 v -3.8018 h 26.30136 26.3014 v 3.8018 3.80181 h -26.3014 -26.30136 z"
       id="path3876-4"
       inkscape:connector-curvature="0" />
    <path
       style="display:inline;fill:#daebf2;fill-opacity:1;stroke-width:0.31991023"
       d="m 197.4596,149.8404 v -5.75701 h 11.67062 11.67062 v 5.75701 5.75701 H 209.13022 197.4596 Z"
       id="path3876-4-5"
       inkscape:connector-curvature="0" />
    <path
       style="display:inline;fill:#daebf2;fill-opacity:1;stroke-width:0.13832971"
       d="m 231.34548,134.9155 v -3.43157 h 3.66077 3.66078 v 3.43157 3.43157 h -3.66078 -3.66077 z"
       id="path3876-4-5-0-5"
       inkscape:connector-curvature="0" />
    <path
       style="display:inline;fill:#daebf2;fill-opacity:1;stroke-width:0.1515833"
       d="m 244.21242,103.62421 v -2.48417 h 6.07233 6.07234 v 2.48417 2.48417 h -6.07234 -6.07233 z"
       id="path3876-4-1"
       inkscape:connector-curvature="0" />
    <path
       style="display:inline;fill:#daebf2;fill-opacity:1;stroke-width:0.29214329"
       d="m 340.59526,105.7559 v -4.96382 h 11.28783 11.28783 v 4.96382 4.96382 h -11.28783 -11.28783 z"
       id="path3876-3-4"
       inkscape:connector-curvature="0" />
    <rect
       style="display:inline;fill:#f2f2f2;fill-opacity:1;stroke:#ffffff;stroke-width:5.50513315;stroke-linejoin:round;stroke-miterlimit:4;stroke-dasharray:none;stroke-opacity:1"
       id="rect5077"
       width="14.112524"
       height="2.8075352"
       x="344.98639"
       y="104.28371" />
    <ellipse
       style="display:inline;fill:#daebf2;fill-opacity:1;stroke-width:0.30780646"
       id="path3901-3"
       cx="343.5032"
       cy="124.88342"
       rx="3.4708924"
       ry="2.5342696" />
    <ellipse
       style="display:inline;fill:#ffffff;fill-opacity:1;stroke-width:0.22799402"
       id="path3901-3-5"
       cx="343.71317"
       cy="124.88343"
       rx="2.6309452"
       ry="1.8343136" />
    <ellipse
       style="display:inline;fill:#daebf2;fill-opacity:1;stroke-width:0.30780646"
       id="path3901-3-8"
       cx="333.56381"
       cy="135.38275"
       rx="3.4708924"
       ry="2.5342696" />
    <ellipse
       style="display:inline;fill:#ffffff;fill-opacity:1;stroke-width:0.22799402"
       id="path3901-3-5-1"
       cx="333.49384"
       cy="135.45276"
       rx="2.6309452"
       ry="1.8343136" />
    <path
       style="display:inline;fill:#daebf2;fill-opacity:1;stroke-width:0.20768958"
       d="m 326.05546,105.80962 v -4.85883 h 5.82818 5.82818 v 4.85883 4.85883 h -5.82818 -5.82818 z"
       id="path3876-3-4-9"
       inkscape:connector-curvature="0" />
    <path
       style="display:inline;fill:#daebf2;fill-opacity:1;stroke-width:0.20768958"
       d="m 312.03408,105.74285 v -4.85883 h 5.82818 5.82818 v 4.85883 4.85882 h -5.82818 -5.82818 z"
       id="path3876-3-4-9-2"
       inkscape:connector-curvature="0" />
    <rect
       style="display:inline;fill:#f2f2f2;fill-opacity:1;stroke:#ffffff;stroke-width:4.37468863;stroke-linejoin:round;stroke-miterlimit:4;stroke-dasharray:none;stroke-opacity:1"
       id="rect5077-7"
       width="6.353528"
       height="3.9379795"
       x="328.74219"
       y="103.87563" />
    <rect
       style="display:inline;fill:#f2f2f2;fill-opacity:1;stroke:#ffffff;stroke-width:4.32324934;stroke-linejoin:round;stroke-miterlimit:4;stroke-dasharray:none;stroke-opacity:1"
       id="rect5077-7-0"
       width="6.1249847"
       height="3.9894187"
       x="314.82233"
       y="103.70992" />
    <path
       style="display:inline;fill:#daebf2;fill-opacity:1;stroke-width:0.11238512"
       d="m 340.79154,134.05964 v -3.17893 h 2.60838 2.60839 v 3.17893 3.17893 h -2.60839 -2.60838 z"
       id="path3876-3-4-9-4"
       inkscape:connector-curvature="0" />
    <path
       style="display:inline;fill:#daebf2;fill-opacity:1;stroke-width:0.11238512"
       d="m 331.46612,126.28333 v -3.17893 h 2.60838 2.60839 v 3.17893 3.17893 h -2.60839 -2.60838 z"
       id="path3876-3-4-9-4-6"
       inkscape:connector-curvature="0" />
    <rect
       style="display:inline;fill:#f2f2f2;fill-opacity:1;stroke:#ffffff;stroke-width:1.93427026;stroke-linejoin:round;stroke-miterlimit:4;stroke-dasharray:none;stroke-opacity:1"
       id="rect5077-7-8"
       width="1.9343783"
       height="2.52864"
       x="342.466"
       y="132.82352" />
    <rect
       style="display:inline;fill:#f2f2f2;fill-opacity:1;stroke:#ffffff;stroke-width:1.93427026;stroke-linejoin:round;stroke-miterlimit:4;stroke-dasharray:none;stroke-opacity:1"
       id="rect5077-7-8-9"
       width="1.9343783"
       height="2.52864"
       x="333.00436"
       y="125.12225" />
    <path
       style="display:inline;fill:#daebf2;fill-opacity:1;stroke-width:0.34530288"
       d="m 195.16141,122.57714 v -5.05681 h 15.47957 15.47961 v 5.05681 5.0568 h -15.47961 -15.47957 z"
       id="path3876-3-4-9-2-9"
       inkscape:connector-curvature="0" />
    <rect
       style="display:inline;fill:#f2f2f2;fill-opacity:1;stroke:#ffffff;stroke-width:3.41897368;stroke-linejoin:round;stroke-miterlimit:4;stroke-dasharray:none;stroke-opacity:1"
       id="rect5077-7-0-7"
       width="4.356566"
       height="3.5078526"
       x="213.5108"
       y="120.0313" />
    <ellipse
       style="display:inline;fill:#ffffff;fill-opacity:1;stroke-width:0.12253758"
       id="path3901-6"
       cx="207.65462"
       cy="102.85965"
       rx="1.1937085"
       ry="1.1678277" />
    <ellipse
       style="display:inline;fill:#ffffff;fill-opacity:1;stroke-width:0.14936246"
       id="path3901-6-1"
       cx="211.2617"
       cy="105.96304"
       rx="1.4675972"
       ry="1.4112842" />
    <ellipse
       style="display:inline;fill:#ffffff;fill-opacity:1;stroke-width:0.09726875"
       id="path3901-6-1-3"
       cx="211.29214"
       cy="102.79811"
       rx="0.950252"
       ry="0.92437106" />
    <ellipse
       style="display:inline;fill:#ffffff;fill-opacity:1;stroke-width:0.11246986"
       id="path3901-6-1-3-4"
       cx="207.57941"
       cy="106.1152"
       rx="1.1253829"
       ry="1.0435432" />
    <path
       style="display:inline;fill:#daebf2;fill-opacity:1;stroke-width:0.03246377"
       d="m 341.72423,127.59833 -0.93269,-0.007 v -2.68584 -2.68583 h 1.00444 1.00443 v 2.11662 c 0,1.16414 0.0122,2.37877 0.0271,2.69917 l 0.0271,0.58254 -0.0988,-0.006 c -0.0543,-0.003 -0.5185,-0.009 -1.03148,-0.0133 z"
       id="path3874-02-1"
       inkscape:connector-curvature="0" />
    <path
       style="display:inline;fill:#daebf2;fill-opacity:1;stroke-width:0.03246377"
       d="m 335.58558,138.06267 -0.93269,-0.007 v -2.68584 -2.68583 h 1.00444 1.00443 v 2.11662 c 0,1.16414 0.0122,2.37876 0.0271,2.69916 l 0.0271,0.58255 -0.0988,-0.006 c -0.0543,-0.003 -0.5185,-0.009 -1.03148,-0.0133 z"
       id="path3874-02-1-9"
       inkscape:connector-curvature="0" />
    <path
       style="display:inline;fill:#daebf2;fill-opacity:1;stroke-width:0.18221994"
       d="m 293.47983,183.30693 c -0.005,-0.13203 -0.1138,-0.87555 -0.24109,-1.65226 -0.12728,-0.77672 -0.18444,-1.41409 -0.12701,-1.41639 0.0574,-0.002 1.17041,-0.16442 2.47328,-0.36026 1.30287,-0.19583 2.50293,-0.35795 2.66678,-0.36025 0.23423,-0.003 0.34421,0.31243 0.51446,1.47667 0.11909,0.81447 0.14902,1.54047 0.0665,1.61335 -0.0825,0.0728 -1.175,0.2745 -2.42777,0.44807 -1.25276,0.17359 -2.42124,0.3551 -2.59663,0.40336 -0.18452,0.0508 -0.32295,-0.0134 -0.32854,-0.15229 z"
       id="path3884-6"
       inkscape:connector-curvature="0" />
    <path
       style="display:inline;fill:#daebf2;fill-opacity:1;stroke-width:0.18221994"
       d="m 292.70138,216.22914 c 0.0425,-0.12509 0.20674,-0.85837 0.36555,-1.62925 0.15882,-0.77088 0.33332,-1.38657 0.38778,-1.36819 0.0545,0.0182 1.15183,0.2649 2.4386,0.54781 1.28679,0.2829 2.46548,0.56054 2.61933,0.61697 0.21993,0.0807 0.20977,0.41484 -0.0475,1.56301 -0.17997,0.80321 -0.41157,1.49193 -0.51469,1.53048 -0.10309,0.0385 -1.19548,-0.16372 -2.4275,-0.4495 -1.23202,-0.28578 -2.38817,-0.53402 -2.56922,-0.55164 -0.19047,-0.0186 -0.29682,-0.12799 -0.25238,-0.25969 z"
       id="path3884-67"
       inkscape:connector-curvature="0" />
    <path
       style="display:inline;fill:#daebf2;fill-opacity:1;stroke-width:0.18221994"
       d="m 232.0377,181.36608 c 0.0606,-0.11742 0.33377,-0.81739 0.60696,-1.55553 0.27319,-0.73814 0.5385,-1.32049 0.58957,-1.29411 0.0512,0.0263 1.09875,0.43548 2.32817,0.90912 1.22943,0.47363 2.35282,0.92575 2.4964,1.00474 0.20528,0.11286 0.14485,0.44171 -0.28253,1.53797 -0.29898,0.76692 -0.63175,1.41286 -0.73948,1.43544 -0.10773,0.0226 -1.15715,-0.34205 -2.33202,-0.81026 -1.17487,-0.46822 -2.28039,-0.88789 -2.45672,-0.9326 -0.18549,-0.0471 -0.27413,-0.17127 -0.21035,-0.29477 z"
       id="path3884-1"
       inkscape:connector-curvature="0" />
    <path
       style="display:inline;fill:#daebf2;fill-opacity:1;stroke-width:0.18221994"
       d="m 232.01099,220.08642 c -0.005,-0.13203 -0.1138,-0.87554 -0.2411,-1.65226 -0.12728,-0.7767 -0.18444,-1.41409 -0.12701,-1.41639 0.0574,-0.002 1.17041,-0.16441 2.47329,-0.36025 1.30287,-0.19583 2.50292,-0.35795 2.66677,-0.36025 0.23424,-0.003 0.34422,0.31242 0.51446,1.47667 0.11909,0.81447 0.14902,1.54047 0.0665,1.61334 -0.0825,0.0728 -1.175,0.27451 -2.42777,0.44808 -1.25275,0.17359 -2.42124,0.35509 -2.59663,0.40336 -0.18452,0.0507 -0.32295,-0.0134 -0.32853,-0.1523 z"
       id="path3884-8"
       inkscape:connector-curvature="0" />
    <path
       style="display:inline;fill:#daebf2;fill-opacity:1;stroke-width:0.33905488"
       d="M 302.31678,197.26152 V 186.4493 h 2.19291 2.19291 v 10.81222 10.81218 h -2.19291 -2.19291 z"
       id="path3880-9-7"
       inkscape:connector-curvature="0" />
    <path
       style="display:inline;fill:#daebf2;fill-opacity:1;stroke-width:0.10800146"
       d="m 306.3936,132.96796 -2.19854,-0.0348 V 120.32222 107.7113 h 2.36765 2.36764 v 9.93827 c 0,5.46605 0.0287,11.16915 0.0637,12.67354 l 0.0637,2.73526 -0.23285,-0.0278 c -0.12807,-0.0153 -1.22219,-0.0435 -2.43138,-0.0626 z"
       id="path3874-02"
       inkscape:connector-curvature="0" />
    <path
       style="display:inline;fill:#daebf2;fill-opacity:1;stroke-width:0.56090271"
       d="m 309.6247,194.21945 v -11.23717 h 5.77448 5.77449 v 11.23717 11.23715 h -5.77449 -5.77448 z"
       id="path3880-9-6-7"
       inkscape:connector-curvature="0" />
    <path
       style="display:inline;fill:#daebf2;fill-opacity:1;stroke-width:0.04216379"
       d="m 313.91042,140.88454 0.0154,-0.79502 5.31515,0.005 5.31515,0.005 -7.9e-4,0.8562 -7.9e-4,0.85617 -4.18872,-0.004 c -2.30379,-0.002 -4.70748,0.006 -5.34156,0.0181 l -1.15286,0.0219 0.0118,-0.0841 c 0.007,-0.0463 0.0188,-0.44195 0.0272,-0.8792 z"
       id="path3874-02-7-5-9"
       inkscape:connector-curvature="0" />
    <path
       style="display:inline;fill:#daebf2;fill-opacity:1;stroke-width:0.0425883"
       d="m 350.46133,140.89069 0.0154,-0.8111 5.31515,0.005 5.31515,0.005 -7.9e-4,0.87352 -7.9e-4,0.8735 -4.18872,-0.004 c -2.30379,-0.002 -4.70748,0.006 -5.34156,0.0184 l -1.15286,0.0224 0.0118,-0.0858 c 0.007,-0.0473 0.0188,-0.4509 0.0272,-0.897 z"
       id="path3874-02-7-5-9-9"
       inkscape:connector-curvature="0" />
    <path
       style="display:inline;fill:#daebf2;fill-opacity:1;stroke-width:0.04216375"
       d="m 352.62752,158.92101 0.0154,-0.795 5.31516,0.005 5.31515,0.005 -8e-4,0.85618 -7.9e-4,0.85617 -4.18872,-0.004 c -2.30379,-0.002 -4.70748,0.006 -5.34156,0.0181 l -1.15285,0.0219 0.0117,-0.0842 c 0.007,-0.0462 0.0188,-0.44195 0.0272,-0.8792 z"
       id="path3874-02-7-5-9-9-5"
       inkscape:connector-curvature="0" />
    <path
       style="display:inline;fill:#daebf2;fill-opacity:1;stroke-width:0.04173492"
       d="m 335.2199,158.96447 0.0153,-0.77892 5.31516,0.005 5.31515,0.005 -8e-4,0.83885 -7.9e-4,0.83885 -4.18872,-0.004 c -2.30379,-0.002 -4.70748,0.006 -5.34155,0.0177 l -1.15286,0.0215 0.0118,-0.0824 c 0.007,-0.0453 0.0187,-0.43301 0.0272,-0.86141 z"
       id="path3874-02-7-5-9-9-5-1"
       inkscape:connector-curvature="0" />
    <path
       style="display:inline;fill:#daebf2;fill-opacity:1;stroke-width:0.03506438"
       d="m 221.88619,211.62363 0.49391,0.0141 0.009,5.91727 0.009,5.91727 -0.53188,0.002 -0.53188,0.002 -0.007,-4.66324 c -0.004,-2.56477 -0.0143,-5.24072 -0.0233,-5.94658 l -0.0162,-1.28336 0.0522,0.0128 c 0.0288,0.007 0.2746,0.0191 0.54625,0.0268 z"
       id="path3874-02-7-5-9-9-5-1-0"
       inkscape:connector-curvature="0" />
    <path
       style="display:inline;fill:#daebf2;fill-opacity:1;stroke-width:0.03506438"
       d="m 198.93597,170.06157 -0.018,0.49379 -5.91716,-0.0378 -5.91715,-0.0378 0.002,-0.53188 0.002,-0.53189 4.66314,0.0299 c 2.56473,0.0161 5.24068,0.027 5.94658,0.0236 l 1.28346,-0.006 -0.0132,0.0522 c -0.008,0.0287 -0.0212,0.27444 -0.0311,0.54601 z"
       id="path3874-02-7-5-9-9-5-1-0-7"
       inkscape:connector-curvature="0" />
    <path
       style="display:inline;fill:#daebf2;fill-opacity:1;stroke-width:0.52605504"
       d="m 209.98984,196.09283 v -10.41428 h 5.48059 5.48062 v 10.41428 10.41427 h -5.48062 -5.48059 z"
       id="path3880-9-6-7-8"
       inkscape:connector-curvature="0" />
    <path
       style="display:inline;fill:#daebf2;fill-opacity:1;stroke-width:0.52605504"
       d="m 200.81236,210.95716 10.41423,-0.0333 0.0175,5.48056 0.0175,5.48057 -10.41423,0.0333 -10.41421,0.0333 -0.0175,-5.48057 -0.0175,-5.48056 z"
       id="path3880-9-6-7-8-7"
       inkscape:connector-curvature="0" />
    <path
       style="display:inline;fill:#daebf2;fill-opacity:1;stroke-width:0.40774506"
       d="m 195.34933,197.33509 v -7.65174 h 4.48137 4.48139 v 7.65174 7.65173 h -4.48139 -4.48137 z"
       id="path3880-9-6-7-8-6"
       inkscape:connector-curvature="0" />
    <path
       style="display:inline;fill:#daebf2;fill-opacity:1;stroke-width:0.34580439"
       d="m 309.78891,162.77399 v -2.47934 h 9.94766 9.94769 v 2.47934 2.47932 h -9.94769 -9.94766 z"
       id="path3880-9-6-7-6"
       inkscape:connector-curvature="0" />
    <path
       style="display:inline;fill:#daebf2;fill-opacity:1;stroke-width:0.27557528"
       d="m 309.84769,169.0044 v -4.53654 h 3.45262 3.45265 v 4.53654 4.53652 h -3.45265 -3.45262 z"
       id="path3880-9-6-7-6-2"
       inkscape:connector-curvature="0" />
    <path
       style="display:inline;fill:#daebf2;fill-opacity:1;stroke-width:0.32535678"
       d="m 313.562,163.12291 2.85742,-4.35529 3.02418,3.03137 3.02418,3.03137 -2.85742,4.35529 -2.8574,4.35527 -3.02419,-3.03137 -3.02417,-3.03136 z"
       id="path3880-9-6-7-6-2-0"
       inkscape:connector-curvature="0"
       inkscape:transform-center-x="-0.70532851" />
    <rect
       style="display:inline;fill:#f2f2f2;fill-opacity:1;stroke:#daebf2;stroke-width:1.93529344;stroke-linejoin:round;stroke-miterlimit:4;stroke-dasharray:none;stroke-opacity:1"
       id="rect5077-7-8-99"
       width="1.1091923"
       height="4.4144945"
       x="17.101709"
       y="433.60687"
       transform="matrix(0.59663349,-0.80251385,0.84423023,0.53598071,0,0)" />
    <rect
       style="display:inline;fill:#f2f2f2;fill-opacity:1;stroke:#daebf2;stroke-width:1.82667768;stroke-linejoin:round;stroke-miterlimit:4;stroke-dasharray:none;stroke-opacity:1"
       id="rect5077-7-8-99-8"
       width="1.044351"
       height="4.1770678"
       x="23.018427"
       y="433.39417"
       transform="matrix(0.60197055,-0.79851829,0.8475739,0.53067738,0,0)" />
    <rect
       style="display:inline;fill:#f2f2f2;fill-opacity:1;stroke:#daebf2;stroke-width:1.61909664;stroke-linejoin:round;stroke-miterlimit:4;stroke-dasharray:none;stroke-opacity:1"
       id="rect5077-7-8-99-87"
       width="0.93000817"
       height="3.6851313"
       x="430.2641"
       y="-75.585846"
       transform="matrix(0.77393553,0.63326439,-0.58827084,0.80866397,0,0)" />
    <path
       style="display:inline;fill:#daebf2;fill-opacity:1;stroke-width:0.04552494"
       d="m 288.22947,141.0347 0.0154,-0.92373 5.33286,0.006 5.33286,0.006 -7.9e-4,0.99481 -8e-4,0.99481 -4.20266,-0.004 c -2.31147,-0.002 -4.72318,0.007 -5.35936,0.021 l -1.1567,0.0255 0.0118,-0.0978 c 0.007,-0.0537 0.0187,-0.51351 0.0272,-1.02156 z"
       id="path3874-02-7-5"
       inkscape:connector-curvature="0" />
    <path
       style="display:inline;fill:#daebf2;fill-opacity:1;stroke-width:0.03246377"
       d="m 335.1446,138.06267 -0.93269,-0.007 v -2.68584 -2.68583 h 1.00445 1.00443 v 2.11662 c 0,1.16414 0.0122,2.37876 0.0271,2.69916 l 0.0271,0.58255 -0.0988,-0.006 c -0.0543,-0.003 -0.51849,-0.009 -1.03147,-0.0133 z"
       id="path3874-02-1-1"
       inkscape:connector-curvature="0" />
    <path
       style="display:inline;fill:#daebf2;fill-opacity:1;stroke-width:0.04552494"
       d="m 239.9606,112.0249 0.92374,0.0152 -0.005,5.33286 -0.005,5.33287 -0.99482,-5.3e-4 -0.9948,-5.3e-4 0.004,-4.20267 c 0.002,-2.31147 -0.007,-4.72317 -0.0219,-5.35935 l -0.0257,-1.1567 0.0978,0.0118 c 0.0538,0.007 0.51351,0.0187 1.02157,0.0271 z"
       id="path3874-02-7-5-4"
       inkscape:connector-curvature="0" />
    <path
       style="display:inline;fill:#daebf2;fill-opacity:1;stroke-width:0.25598904"
       d="m 389.86401,150.68553 v -6.50727 h 2.077 2.07703 v 6.50727 6.50726 h -2.07703 -2.077 z"
       id="path3880-9-6-6-2"
       inkscape:connector-curvature="0" />
    <rect
       id="rect3724"
       width="5.6557555"
       height="73.12674"
       x="389.10883"
       y="157.97803"
       style="display:inline;fill:#666666;stroke:#666666;stroke-width:0.21396282;stroke-opacity:1" />
    <rect
       id="rect3726"
       width="35.15966"
       height="5.7090149"
       x="354.0683"
       y="95.060921"
       style="display:inline;fill:#666666;stroke:#666666;stroke-width:0.2204861;stroke-opacity:1" />
    <rect
       id="rect3728"
       width="57.444504"
       height="5.6696429"
       x="285.04779"
       y="95.100296"
       style="display:inline;fill:#666666;stroke:#666666;stroke-width:0.22327895;stroke-opacity:1" />
    <rect
       id="rect3730"
       width="84.650917"
       height="5.7090149"
       x="180.04083"
       y="95.100296"
       style="display:inline;fill:#666666;stroke:#666666;stroke-width:0.37252656;stroke-opacity:1" />
    <rect
       id="rect3732"
       width="5.6696396"
       height="35.514015"
       x="180.04083"
       y="100.80931"
       style="display:inline;fill:#666666;stroke:#666666;stroke-width:0.29511869;stroke-opacity:1" />
    <rect
       id="rect3734"
       width="5.7090149"
       height="6.1421132"
       x="180.0802"
       y="164.35652"
       style="display:inline;fill:#666666;stroke:#666666;stroke-width:0.22209232;stroke-opacity:1" />
    <rect
       id="rect3736"
       width="0.9744699"
       height="1.0729011"
       x="185.67108"
       y="169.41591"
       style="display:inline;fill:#666666;stroke:#666666;stroke-width:0.23376337;stroke-opacity:1" />
    <rect
       id="rect3738"
       width="22.924646"
       height="1.0729011"
       x="199.47125"
       y="169.42577"
       style="display:inline;fill:#666666;stroke:#666666;stroke-width:0.231039;stroke-opacity:1" />
    <rect
       id="rect3740"
       width="1.1024305"
       height="40.888359"
       x="221.30344"
       y="170.20338"
       style="display:inline;fill:#666666;stroke:#666666;stroke-width:0.37448397;stroke-opacity:1" />
    <rect
       id="rect3742"
       width="1.063058"
       height="7.2445445"
       x="221.32315"
       y="223.88782"
       style="display:inline;fill:#666666;stroke:#666666;stroke-width:0.2204861;stroke-opacity:1" />
    <rect
       id="rect3744"
       width="30.00186"
       height="5.689333"
       x="222.38623"
       y="225.44301"
       style="display:inline;fill:#666666;stroke:#666666;stroke-width:0.27070612;stroke-opacity:1" />
    <rect
       id="rect3746"
       width="37.226715"
       height="5.6893206"
       x="280.40173"
       y="225.44301"
       style="display:inline;fill:#666666;stroke:#666666;stroke-width:0.24251994;stroke-opacity:1" />
    <rect
       id="rect3748"
       width="18.485397"
       height="5.6893077"
       x="336.84268"
       y="225.44301"
       style="display:inline;fill:#666666;stroke:#666666;stroke-width:0.19561122;stroke-opacity:1" />
    <rect
       id="rect3750"
       width="15.39465"
       height="5.6892948"
       x="375.21188"
       y="225.44301"
       style="display:inline;fill:#666666;stroke:#666666;stroke-width:0.16862381;stroke-opacity:1" />
    <rect
       id="rect3752"
       width="2.1654885"
       height="67.464813"
       x="348.08359"
       y="157.95851"
       style="display:inline;fill:#666666;stroke:#666666;stroke-width:0.39312336;stroke-opacity:1" />
    <rect
       id="rect3754"
       width="25.715961"
       height="2.1415172"
       x="363.71481"
       y="157.95851"
       style="display:inline;fill:#666666;stroke:#666666;stroke-width:0.17634736;stroke-opacity:1" />
    <rect
       id="rect3756"
       width="3.9436796"
       height="2.1415203"
       x="346.30533"
       y="157.95851"
       style="display:inline;fill:#666666;stroke:#666666;stroke-width:0.2176744;stroke-opacity:1" />
    <rect
       id="rect3758"
       width="27.506477"
       height="2.1437268"
       x="307.27286"
       y="157.95633"
       style="display:inline;fill:#666666;stroke:#666666;stroke-width:0.21970914;stroke-opacity:1" />
    <rect
       id="rect3760"
       width="2.1994054"
       height="66.900894"
       x="307.27286"
       y="160.10007"
       style="display:inline;fill:#666666;stroke:#666666;stroke-width:0.38189316;stroke-opacity:1" />
    <rect
       id="rect3762"
       width="1.8898901"
       height="2.1415203"
       x="350.24908"
       y="157.95851"
       style="display:inline;fill:#666666;stroke:#666666;stroke-width:0.08260183;stroke-opacity:1" />
    <rect
       id="rect3764"
       width="2.1396265"
       height="44.602314"
       x="363.5112"
       y="97.462646"
       style="display:inline;fill:#666666;stroke:#666666;stroke-width:0.21009748;stroke-opacity:1" />
    <rect
       id="rect3766"
       width="1.9488226"
       height="2.1771729"
       x="361.56232"
       y="139.88777"
       style="display:inline;fill:#666666;stroke:#666666;stroke-width:0.2204861;stroke-opacity:1" />
    <rect
       id="rect3768"
       width="25.056517"
       height="2.1771729"
       x="324.97946"
       y="139.88777"
       style="display:inline;fill:#666666;stroke:#666666;stroke-width:0.18247561;stroke-opacity:1" />
    <rect
       id="rect3770"
       width="4.1482458"
       height="20.574184"
       x="336.61682"
       y="119.36929"
       style="display:inline;fill:#666666;stroke:#666666;stroke-width:0.2182994;stroke-opacity:1" />
    <rect
       id="rect3772"
       width="12.806659"
       height="2.1994059"
       x="323.81015"
       y="119.36929"
       style="display:inline;fill:#666666;stroke:#666666;stroke-width:0.2204861;stroke-opacity:1" />
    <rect
       id="rect3774"
       width="2.0045261"
       height="20.240097"
       x="323.81015"
       y="99.129181"
       style="display:inline;fill:#666666;stroke:#666666;stroke-width:0.2204861;stroke-opacity:1" />
    <rect
       id="rect3776"
       width="14.115171"
       height="2.8118975"
       x="299.33829"
       y="139.69292"
       style="display:inline;fill:#666666;stroke:#666666;stroke-width:0.2204861;stroke-opacity:1" />
    <rect
       id="rect3778"
       width="2.6170142"
       height="40.20179"
       x="309.27737"
       y="99.491104"
       style="display:inline;fill:#666666;stroke:#666666;stroke-width:0.377841;stroke-opacity:1" />
    <rect
       id="rect3780"
       width="49.136902"
       height="2.795449"
       x="238.66685"
       y="139.67"
       style="display:inline;fill:#666666;stroke:#666666;stroke-width:0.22850238;stroke-opacity:1" />
    <rect
       id="rect3782"
       width="2.8348215"
       height="39.431576"
       x="256.79773"
       y="100.25809"
       style="display:inline;fill:#666666;stroke:#666666;stroke-width:0.36622953;stroke-opacity:1" />
    <rect
       id="rect3784"
       width="2.1851747"
       height="11.713325"
       x="238.72595"
       y="99.962799"
       style="display:inline;fill:#666666;stroke:#666666;stroke-width:0.2204861;stroke-opacity:1" />
    <rect
       id="rect3786"
       width="2.2639196"
       height="16.556149"
       x="238.66685"
       y="123.11385"
       style="display:inline;fill:#666666;stroke:#666666;stroke-width:0.2204861;stroke-opacity:1" />
    <rect
       id="rect3788"
       width="13.209479"
       height="5.9058781"
       x="179.84396"
       y="225.46271"
       style="display:inline;fill:#666666;stroke:#666666;stroke-width:0.2204861;stroke-opacity:1" />
    <rect
       id="rect3790"
       width="6.1814857"
       height="9.0950508"
       x="179.82428"
       y="217.68665"
       style="display:inline;fill:#666666;stroke:#666666;stroke-width:0.2204861;stroke-opacity:1" />
    <rect
       id="rect3780-7"
       width="48.839451"
       height="14.900344"
       x="239.22905"
       y="158.49605"
       style="display:inline;fill:#666666;stroke:#666666;stroke-width:0.52595019;stroke-opacity:1" />
    <path
       style="display:inline;fill:#666666;fill-opacity:1;stroke:#666666;stroke-width:0.17225477;stroke-opacity:1"
       d="m 388.80374,231.14956 c -0.0229,-0.0229 -3.11803,-0.0467 -6.87805,-0.0528 l -6.8364,-0.0112 v -2.82682 -2.82683 l 6.43288,-0.0116 c 3.53809,-0.007 6.98749,0.04 7.66534,0.103 l 1.23245,0.11455 v 2.71399 2.714 l -0.78729,0.0626 c -0.43301,0.0344 -0.80603,0.0438 -0.82893,0.021 z"
       id="path4064"
       inkscape:connector-curvature="0" />
    <rect
       id="rect3774-7"
       width="2.6771846"
       height="9.8534517"
       x="337.91837"
       y="100.86626"
       style="display:inline;fill:#666666;stroke:#666666;stroke-width:0.17778799;stroke-opacity:1" />
    <path
       style="display:inline;fill:none;stroke:#666666;stroke-width:0.2204861px;stroke-linecap:butt;stroke-linejoin:miter;stroke-opacity:1"
       d="m 264.69226,95.100294 h 20.35559"
       id="path5416"
       inkscape:connector-curvature="0" />
    <path
       style="display:inline;fill:none;stroke:#666666;stroke-width:0.2204861px;stroke-linecap:butt;stroke-linejoin:miter;stroke-opacity:1"
       d="m 264.69226,100.80931 20.35559,-0.0394"
       id="path5418"
       inkscape:connector-curvature="0" />
    <path
       style="display:inline;fill:none;stroke:#666666;stroke-width:0.2204861px;stroke-linecap:butt;stroke-linejoin:miter;stroke-opacity:1"
       d="m 342.49236,100.76994 h 11.5755"
       id="path5420"
       inkscape:connector-curvature="0" />
    <path
       style="display:inline;fill:none;stroke:#666666;stroke-width:0.2204861px;stroke-linecap:butt;stroke-linejoin:miter;stroke-opacity:1"
       d="m 342.49236,95.100294 11.5755,-0.03938"
       id="path5422"
       inkscape:connector-curvature="0" />
    <path
       style="display:inline;fill:none;stroke:#666666;stroke-width:0.2204861px;stroke-linecap:butt;stroke-linejoin:miter;stroke-opacity:1"
       d="m 375.08929,231.08561 -19.76149,0.0467"
       id="path5424"
       inkscape:connector-curvature="0" />
    <path
       style="display:inline;fill:none;stroke:#666666;stroke-width:0.2204861px;stroke-linecap:butt;stroke-linejoin:miter;stroke-opacity:1"
       d="m 355.3278,225.44301 c 19.76149,-0.0111 19.76149,-0.0111 19.76149,-0.0111"
       id="path5426"
       inkscape:connector-curvature="0" />
    <path
       style="display:inline;fill:none;stroke:#666666;stroke-width:0.2204861px;stroke-linecap:butt;stroke-linejoin:miter;stroke-opacity:1"
       d="m 317.6286,231.13233 c 19.2138,-2e-5 19.2138,-2e-5 19.2138,-2e-5"
       id="path5428"
       inkscape:connector-curvature="0" />
    <path
       style="display:inline;fill:none;stroke:#666666;stroke-width:0.2204861px;stroke-linecap:butt;stroke-linejoin:miter;stroke-opacity:1"
       d="m 336.8424,225.44301 c -19.2138,0 -19.2138,0 -19.2138,0"
       id="path5430"
       inkscape:connector-curvature="0" />
    <path
       style="display:inline;fill:none;stroke:#666666;stroke-width:0.2204861px;stroke-linecap:butt;stroke-linejoin:miter;stroke-opacity:1"
       d="m 280.40189,231.13233 -28.01354,1e-5"
       id="path5432"
       inkscape:connector-curvature="0" />
    <path
       style="display:inline;fill:none;stroke:#666666;stroke-width:0.2204861px;stroke-linecap:butt;stroke-linejoin:miter;stroke-opacity:1"
       d="m 280.40189,225.44301 c -28.01354,0 -28.01354,0 -28.01354,0"
       id="path5434"
       inkscape:connector-curvature="0" />
    <path
       style="display:inline;fill:none;stroke:#666666;stroke-width:0.2204861px;stroke-linecap:butt;stroke-linejoin:miter;stroke-opacity:1"
       d="m 221.32341,231.13235 -28.26949,0.23622"
       id="path5438"
       inkscape:connector-curvature="0" />
    <path
       style="display:inline;fill:none;stroke:#666666;stroke-width:0.2204861px;stroke-linecap:butt;stroke-linejoin:miter;stroke-opacity:1"
       d="m 180.08068,164.35656 -0.0394,-28.03323"
       id="path5444"
       inkscape:connector-curvature="0" />
    <path
       style="display:inline;fill:none;stroke:#666666;stroke-width:0.2204861px;stroke-linecap:butt;stroke-linejoin:miter;stroke-opacity:1"
       d="m 185.78969,164.35656 -0.0787,-28.03323"
       id="path5446"
       inkscape:connector-curvature="0" />
    <path
       style="display:inline;fill:none;stroke:#666666;stroke-width:0.2204861px;stroke-linecap:butt;stroke-linejoin:miter;stroke-opacity:1"
       d="m 179.82475,217.68664 0.25593,-47.18797"
       id="path5448"
       inkscape:connector-curvature="0" />
    <rect
       id="rect3724-2"
       width="5.7826076"
       height="48.565941"
       x="389.09927"
       y="95.038048"
       style="display:inline;fill:#666666;stroke:#666666;stroke-width:0.17631234;stroke-opacity:1" />
    <path
       style="display:inline;fill:#666666;fill-opacity:1;stroke:#666666;stroke-width:0.2204861px;stroke-linecap:butt;stroke-linejoin:miter;stroke-opacity:1"
       d="m 394.7633,157.97806 0.11728,-14.37408"
       id="path2223"
       inkscape:connector-curvature="0" />
  </g>
</svg>
